<svg xmlns="http://www.w3.org/2000/svg" viewBox="0 0 936 936"><path fill="#010101" d="M464.923 3.625C454.36 7.9 443.225 15.507 433.13 21.052 408.795 34.418 384.562 47.978 360.315 61.505 289.977 100.744 218.957 138.88 149.048 178.871 124.273 193.042 99.254 206.927 74.181 220.562 67.656 224.11 61.217 227.817 54.696 231.369 51.736 232.98 47.506 234.672 46.084 237.974 44.829 240.886 45.466 244.919 45.466 248.015L45.466 689.009C45.466 691.998 44.806 696.081 46.519 698.723 51.54 702.5 58.977 706.692 63.926 709.52 79.527 718.436 95.468 726.743 111.101 735.595 169.264 768.53 227.888 800.727 286.474 832.903 332.051 857.934 376.956 884.316 422.875 908.707 433.914 914.571 444.822 920.765 455.693 926.941 459.85 929.34 464.42 932.91 470.05 932.322 473.85 930.87 478.582 928.062 482.358 925.916 489.16 922.05 496.035 918.304 502.869 914.491 524.724 902.3 546.571 890.075 568.505 878.028 642.818 837.216 717.452 796.711 791.054 754.647 815.84 740.481 841.064 727.077 865.92 713.033L883.354 703.224C886.02 701.75 889.84 698.79 890.208 697.107 890.62 693.71 890.534 689.45 890.534 685.933L890.534 246.99C890.534 243.898 891.158 239.84 889.479 237.072 884.79 233.37 876.337 228.547 871.048 225.596 856.006 217.205 840.921 208.878 825.923 200.404 767.732 167.528 709.134 135.27 650.55 103.096 604.946 78.052 559.754 52.25 514.15 27.204 502.831 20.988 491.626 14.561 480.307 8.344 475.625 5.775 470.523 1.884 464.923 3.625"/><path fill="#fefefe" d="M467.98 122.41c-12.81 17.34-24.83 33.34-37.576 49-18.352 23.555-36.213 47.499-54.634 71-7.802 9.953-15.45 20.019-23.214 30-4.526 6.31-9.246 12.71-13.576 19h79v127c0 20.789-3.507 45.095 3.359 65 12.285 35.619 62.467 41.609 86.457 14.985C522.559 482.514 519 457.671 519 436V293h79c-4.54-6.39-9-12.78-13.58-18.92-7.744-9.94-15.254-20.059-23-30-20.456-26.255-40.706-52.675-61.074-79-10.415-13.461-21.01-26.7-32.37-42.55z"/><path fill="#fefefe" d="M152 328.638c-8.862 2.562-13.062 10.513-16.421 18.362-6.403 14.96-11.749 30.28-15.949 46-18.116 70.789-10.676 142.117 17.949 209 10.612 24.797 26.025 48.013 42.821 69C265.531 777.377 409.057 827.094 542 799.996 671.506 773.599 791.475 673.882 818.997 541c11.417-55.124 9.876-111.112-7.341-165-6.345-19.859-13.286-51.152-39.656-47.815-14.537 1.84-19.451 17.583-15.48 29.815 5.02 15.462 12.138 30.135 16.105 46 12.054 48.203 11.886 97.238-2.346 145C739.184 653.361 646.478 731.32 542 756.116c-43.014 10.208-87.546 10.739-131 3.449C312.54 743.047 221.104 676.037 179.309 585c-14.945-32.552-21.971-66.551-24.399-102-1.994-29.119 2.46-58.974 10.811-87 2.719-9.127 6-18.139 9.482-27 2.006-5.106 5.153-10.491 5.692-16 1.606-16.411-12.402-29.129-28.895-24.362"/><path fill="#fefefe" d="M242 379.468C223.761 382.914 220.076 408 216.374 423c-11.414 46.254-5.864 97.76 13.935 141C265.137 640.062 338.642 692.296 420 707.54c26.612 4.986 54.192 4.895 81 2.29 71.009-6.899 140.217-48.221 181.572-105.83 16.251-22.639 27.234-47.527 35.468-74 11.361-36.528 9.751-78.381.076-115-3.902-14.766-9.597-35.724-28.116-35.982-11.213-.155-22.689 8.15-22.984 19.982-.164 6.601 2.492 11.861 4.479 18 2.527 7.808 4.586 15.922 6.042 24 5.508 30.546 2.645 62.87-7.973 92C632.908 633.561 518.857 687.296 417 663.116 338.391 644.454 269.322 579.782 257.579 498c-2.747-19.135-2.834-40.039 1.306-59 1.47-6.733 2.914-13.461 5.119-20 2.452-7.273 5.671-14.13 4.891-22-1.256-12.677-15.361-19.712-26.895-17.532"/><path fill="#fefefe" d="M330 430.532c-14.411 3.434-15.831 17.302-17.285 29.468-3.276 27.391 3.744 56.35 17.737 80 34.575 58.433 105.893 86.383 171.548 72.996 53.989-11.008 99.86-50.362 116.656-102.996 5.628-17.637 6.118-35.74 4.419-54-1.343-14.437-8.076-26.134-24.075-25.995-9.255.08-18.437 5.837-21.2 14.995-2.431 8.059 1.099 16.827 1.196 25 .165 13.91-2.963 27.25-8.423 40-20.251 47.281-76.768 71.37-125.573 61.551-40.376-8.124-77.042-39.478-85.789-80.551-1.689-7.93-2.678-15.879-2.121-24 .453-6.619 1.91-12 1.581-20-2.337-13.083-16.59-19.346-28.671-16.468"/></svg>